<svg width="874" height="874" viewBox="0 0 874 874" fill="none" xmlns="http://www.w3.org/2000/svg">
<path fill-rule="evenodd" clip-rule="evenodd" d="M606.52 533.417L434.746 632.591L434.746 863.787L434.756 863.793L806.769 649.012L806.769 219.449L434.756 4.6681L62.7442 219.449L62.7442 649.012L262.973 764.614L262.973 335.071L434.746 235.897L606.52 335.07L606.52 533.417Z" fill="#00B9BE" fill-opacity="0.4"/>
<mask id="mask0_551_66" style="mask-type:alpha" maskUnits="userSpaceOnUse" x="62" y="4" width="745" height="860">
<path fill-rule="evenodd" clip-rule="evenodd" d="M606.521 533.417L434.747 632.591L434.747 863.787L434.757 863.793L806.77 649.012L806.77 219.449L434.757 4.6681L62.7451 219.449L62.7451 649.012L262.974 764.614L262.974 335.071L434.747 235.897L606.521 335.07L606.521 533.417Z" fill="#47A663"/>
</mask>
<g mask="url(#mask0_551_66)">
<rect width="536.237" height="201.022" transform="matrix(0.866025 0.5 0.5 -0.866025 -163.601 520.095)" fill="#00B9BE"/>
<rect x="577.875" y="948.183" width="319.933" height="201.41" transform="rotate(-150 577.875 948.183)" fill="#00B9BE"/>
<rect width="595.373" height="174.753" transform="matrix(0.866025 0.5 0.5 -0.866025 -163.591 289.413)" fill="#00B9BE" fill-opacity="0.4"/>
<rect x="805.159" y="848.752" width="523.254" height="174.753" transform="rotate(-150 805.159 848.752)" fill="#00B9BE" fill-opacity="0.4"/>
<rect width="481.012" height="174.753" transform="matrix(0.866025 0.5 0.5 -0.866025 30.1309 201.004)" fill="#00B9BE" fill-opacity="0.4"/>
</g>
</svg>
