<svg width="174" height="174" viewBox="0 0 174 174" fill="none" xmlns="http://www.w3.org/2000/svg">
<rect width="174" height="174" rx="87" fill="#FFB800" fill-opacity="0.2"/>
<path d="M82.0588 52.01V71.0867C82.0588 72.6662 81.7469 74.2303 81.141 75.689C80.535 77.1477 79.6469 78.4724 78.5277 79.587C77.4085 80.7017 76.0802 81.5843 74.619 82.1843C73.1578 82.7843 71.5926 83.0898 70.013 83.0833H51.0347C49.4594 83.0929 47.8984 82.7843 46.4452 82.176C44.9921 81.5677 43.6767 80.6722 42.578 79.5433C41.4625 78.4371 40.5791 77.1193 39.9797 75.6671C39.3802 74.2149 39.0768 72.6577 39.0872 71.0867V52.0592C39.0871 48.886 40.3443 45.842 42.5835 43.5936C44.8227 41.3452 47.8615 40.0755 51.0347 40.0625H70.0622C71.6358 40.064 73.1935 40.3777 74.6451 40.9853C76.0967 41.593 77.4134 42.4825 78.5188 43.6025C79.6373 44.6988 80.5264 46.0069 81.1341 47.4503C81.7419 48.8938 82.0563 50.4438 82.0588 52.01ZM134.913 52.0592V71.0867C134.888 74.252 133.622 77.2812 131.388 79.5241C129.155 81.767 126.131 83.0448 122.966 83.0833H103.889C100.709 83.0639 97.6599 81.8126 95.383 79.5925C94.2704 78.4739 93.3894 77.1468 92.7904 75.6873C92.1914 74.2277 91.8861 72.6644 91.8922 71.0867V52.0592C91.8882 50.4847 92.1994 48.9254 92.8073 47.473C93.4153 46.0206 94.3078 44.7046 95.4322 43.6025C96.5376 42.4825 97.8543 41.593 99.3059 40.9853C100.757 40.3777 102.315 40.064 103.889 40.0625H122.916C126.09 40.0882 129.127 41.3604 131.371 43.6046C133.615 45.8489 134.887 48.8854 134.913 52.0592ZM134.913 104.913V123.941C134.888 127.106 133.622 130.135 131.388 132.378C129.155 134.621 126.131 135.899 122.966 135.938H103.889C100.688 135.97 97.6017 134.753 95.2847 132.545C94.1677 131.43 93.2838 130.103 92.6845 128.643C92.0852 127.183 91.7824 125.618 91.7938 124.039V105.012C91.7899 103.437 92.101 101.878 92.709 100.425C93.317 98.9731 94.2094 97.6571 95.3338 96.555C96.4393 95.435 97.7559 94.5455 99.2075 93.9378C100.659 93.3302 102.217 93.0165 103.791 93.015H122.818C125.992 93.0407 129.028 94.3129 131.273 96.5572C133.517 98.8014 134.789 101.838 134.815 105.012L134.913 104.913ZM82.0588 104.963V123.99C82.0202 127.164 80.7355 130.195 78.4821 132.43C76.2286 134.665 73.1869 135.925 70.013 135.938H51.0347C49.4639 135.944 47.9074 135.639 46.4549 135.041C45.0024 134.443 43.6827 133.563 42.572 132.453C41.4613 131.342 40.5815 130.022 39.9834 128.57C39.3853 127.117 39.0807 125.561 39.0872 123.99V104.963C39.0998 101.789 40.3596 98.7469 42.5946 96.4934C44.8297 94.24 47.861 92.9554 51.0347 92.9167H70.0622C73.2492 92.9493 76.2989 94.2185 78.568 96.4567C80.8105 98.7189 82.0656 101.777 82.0588 104.963Z" fill="url(#paint0_linear_278_32)"/>
<defs>
<linearGradient id="paint0_linear_278_32" x1="94.7279" y1="12.0988" x2="182.068" y2="73.7328" gradientUnits="userSpaceOnUse">
<stop stop-color="#FCD434"/>
<stop offset="1" stop-color="#FFB800"/>
</linearGradient>
</defs>
</svg>
